<svg viewBox="-58 1 511 511.998" xmlns="http://www.w3.org/2000/svg"><path d="m387.429688 0h-63.230469c-4.144531 0-7.5 3.359375-7.5 7.5s3.355469 7.5 7.5 7.5h55.730469v482h-268.050782c-4.144531 0-7.5 3.359375-7.5 7.5s3.355469 7.5 7.5 7.5h275.550782c4.140624 0 7.5-3.359375 7.5-7.5v-497c0-4.140625-3.359376-7.5-7.5-7.5zm0 0"/><path d="m82.121094 497h-66.621094v-482h279.046875c4.140625 0 7.5-3.359375 7.5-7.5s-3.359375-7.5-7.5-7.5h-286.546875c-4.144531 0-7.5 3.359375-7.5 7.5v497c0 4.140625 3.355469 7.5 7.5 7.5h74.121094c4.144531 0 7.5-3.359375 7.5-7.5s-3.359375-7.5-7.5-7.5zm0 0"/><path d="m39.691406 46.691406v418.617188c0 4.140625 3.355469 7.5 7.5 7.5h301.046875c4.140625 0 7.5-3.359375 7.5-7.5v-418.617188c0-4.140625-3.359375-7.5-7.5-7.5h-301.046875c-4.144531 0-7.5 3.359375-7.5 7.5zm15 7.5h286.046875v403.617188h-286.046875zm0 0"/><path d="m141.601562 141.476562h112.226563c4.140625 0 7.5-3.359374 7.5-7.5 0-4.140624-3.359375-7.5-7.5-7.5h-112.226563c-4.144531 0-7.5 3.359376-7.5 7.5 0 4.140626 3.355469 7.5 7.5 7.5zm0 0"/><path d="m253.828125 285.019531h-112.226563c-4.144531 0-7.5 3.355469-7.5 7.5 0 4.140625 3.355469 7.5 7.5 7.5h112.226563c4.140625 0 7.5-3.359375 7.5-7.5 0-4.144531-3.359375-7.5-7.5-7.5zm0 0"/><path d="m293.015625 179.324219h-190.605469c-4.140625 0-7.5 3.359375-7.5 7.5s3.359375 7.5 7.5 7.5h190.605469c4.144531 0 7.5-3.359375 7.5-7.5s-3.355469-7.5-7.5-7.5zm0 0"/><path d="m293.015625 232.171875h-190.605469c-4.140625 0-7.5 3.355469-7.5 7.5 0 4.140625 3.359375 7.5 7.5 7.5h190.605469c4.144531 0 7.5-3.359375 7.5-7.5 0-4.144531-3.355469-7.5-7.5-7.5zm0 0"/></svg>